<svg width="520" height="360" viewBox="0 0 520 360" fill="none" xmlns="http://www.w3.org/2000/svg">
  <rect width="520" height="360" rx="40" fill="#FFF5EA"/>
  <circle cx="396" cy="96" r="56" fill="#F9C286"/>
  <circle cx="112" cy="282" r="74" fill="#FED9B1"/>
  <path d="M130 224C130 187.549 159.549 158 196 158H324C360.451 158 390 187.549 390 224C390 260.451 360.451 290 324 290H196C159.549 290 130 260.451 130 224Z" fill="#FA8D1B"/>
  <path d="M149 226C149 200.042 170.042 179 196 179H324C349.958 179 371 200.042 371 226C371 251.958 349.958 273 324 273H196C170.042 273 149 251.958 149 226Z" fill="#FFE1BF"/>
  <ellipse cx="198" cy="221" rx="38" ry="28" fill="#6FAE3A"/>
  <ellipse cx="248" cy="234" rx="41" ry="29" fill="#EB7E0F"/>
  <ellipse cx="297" cy="220" rx="39" ry="27" fill="#F3C66D"/>
  <ellipse cx="328" cy="235" rx="25" ry="18" fill="#74B158"/>
  <path d="M194 126C194 101.147 214.147 81 239 81H256C280.853 81 301 101.147 301 126V143H194V126Z" fill="#85BC50"/>
  <path d="M302 140C300.242 113.423 314.888 100.135 341 100C341.27 125.704 331.562 142.963 302 140Z" fill="#F08C2B"/>
  <path d="M170 162C174.939 135.4 193.479 122.207 219 123C214.659 147.513 198.862 161.508 170 162Z" fill="#F8B85B"/>
  <path d="M350 165C327.901 164.368 312.139 153.041 306 131C327.592 129.209 344.004 139.11 350 165Z" fill="#F3A15A"/>
</svg>
